<?xml version="1.0" encoding="UTF-8" standalone="no"?>
<svg
   xmlns:dc="http://purl.org/dc/elements/1.1/"
   xmlns:cc="http://creativecommons.org/ns#"
   xmlns:rdf="http://www.w3.org/1999/02/22-rdf-syntax-ns#"
   xmlns:svg="http://www.w3.org/2000/svg"
   xmlns="http://www.w3.org/2000/svg"
   viewBox="0 0 610.21332 77.213333"
   height="77.213333"
   width="610.21332"
   xml:space="preserve"
   id="svg2"
   version="1.1"><metadata
     id="metadata8"><rdf:RDF><cc:Work
         rdf:about=""><dc:format>image/svg+xml</dc:format><dc:type
           rdf:resource="http://purl.org/dc/dcmitype/StillImage" /></cc:Work></rdf:RDF></metadata><defs
     id="defs6" /><g
     transform="matrix(1.3333333,0,0,-1.3333333,0,77.213333)"
     id="g10"><g
       transform="scale(0.1)"
       id="g12"><path
         id="path14"
         style="fill:#15366f;fill-opacity:1;fill-rule:nonzero;stroke:none"
         d="m 992.094,109.324 c 0,-14.1326 -11.899,-26.0271 -26.028,-26.0271 H 771.957 c -14.871,0 -26.769,11.8945 -26.769,26.0271 V 303.43 c 0,14.871 11.898,26.773 26.769,26.773 h 194.109 c 14.129,0 26.028,-11.902 26.028,-26.773 z M 1075.39,26.7734 V 386.719 c 0,14.133 -11.91,26.031 -26.78,26.031 H 771.957 c -14.871,0 -26.769,12.645 -26.769,26.773 v 112.301 c 0,14.871 -11.903,26.77 -26.774,26.77 h -29.746 c -14.133,0 -26.773,-11.899 -26.773,-26.77 V 26.7734 C 661.895,11.8984 674.535,0 688.668,0 h 359.942 c 14.87,0 26.78,11.8984 26.78,26.7734" /><path
         id="path16"
         style="fill:#15366f;fill-opacity:1;fill-rule:nonzero;stroke:none"
         d="m 1527.55,330.203 h -277.4 c -14.13,0 -26.03,-11.902 -26.03,-26.031 V 26.7734 C 1224.12,11.8984 1211.48,0 1197.34,0 h -29.74 c -14.13,0 -26.78,11.8984 -26.78,26.7734 V 386.719 c 0,14.133 12.65,26.777 26.78,26.777 h 359.95 c 14.87,0 26.77,-12.644 26.77,-26.777 v -29.746 c 0,-14.871 -11.9,-26.77 -26.77,-26.77" /><path
         id="path18"
         style="fill:#15366f;fill-opacity:1;fill-rule:nonzero;stroke:none"
         d="m 1950.7,108.578 c 0,-14.871 -11.9,-26.7694 -26.77,-26.7694 h -194.85 c -14.13,0 -26.03,11.8984 -26.03,26.7694 v 29.75 c 0,14.875 11.9,26.774 26.03,26.774 h 194.85 c 14.87,0 26.77,-11.899 26.77,-26.774 z m 82.55,-81.8046 V 386.719 c 0,14.133 -11.9,26.777 -26.77,26.777 h -359.95 c -14.13,0 -26.77,-12.644 -26.77,-26.777 v -29.004 c 0,-14.125 12.64,-26.774 26.77,-26.774 h 277.4 c 14.87,0 26.77,-11.898 26.77,-26.023 v -29.75 c 0,-14.875 -11.9,-26.773 -26.77,-26.773 h -277.4 c -14.13,0 -26.77,-11.899 -26.77,-26.774 V 26.7734 C 1619.76,11.8984 1632.4,0 1646.53,0 h 359.95 c 14.87,0 26.77,11.8984 26.77,26.7734" /><path
         id="path20"
         style="fill:#15366f;fill-opacity:1;fill-rule:nonzero;stroke:none"
         d="m 2155.21,0 h -29.75 c -14.13,0 -26.77,11.8984 -26.77,26.7734 V 386.719 c 0,14.133 12.64,26.777 26.77,26.777 h 29.75 c 14.88,0 26.78,-12.644 26.78,-26.777 V 26.7734 C 2181.99,11.8984 2170.09,0 2155.21,0" /><path
         id="path22"
         style="fill:#15366f;fill-opacity:1;fill-rule:nonzero;stroke:none"
         d="m 2634.15,0 h -29 c -14.88,0 -26.78,11.8984 -26.78,26.7734 V 304.172 c 0,14.129 -11.89,26.031 -26.77,26.031 h -194.85 c -14.13,0 -26.03,-11.902 -26.03,-26.031 V 26.7734 C 2330.72,11.8984 2318.07,0 2303.95,0 h -29.75 c -14.13,0 -26.77,11.8984 -26.77,26.7734 V 386.719 c 0,14.133 12.64,26.777 26.77,26.777 h 359.95 c 14.87,0 26.77,-12.644 26.77,-26.777 V 26.7734 C 2660.92,11.8984 2649.02,0 2634.15,0" /><path
         id="path24"
         style="fill:#15366f;fill-opacity:1;fill-rule:nonzero;stroke:none"
         d="M 3113.07,0 H 2753.14 C 2739,0 2726.36,11.8984 2726.36,26.7734 V 386.719 c 0,14.133 12.64,26.777 26.78,26.777 h 29.74 c 14.13,0 26.78,-12.644 26.78,-26.777 V 109.324 c 0,-14.8748 11.89,-26.7732 26.02,-26.7732 h 277.39 c 14.89,0 26.79,-11.9024 26.79,-26.7735 V 26.7734 C 3139.86,11.8984 3127.96,0 3113.07,0" /><path
         id="path26"
         style="fill:#15366f;fill-opacity:1;fill-rule:nonzero;stroke:none"
         d="m 3536.24,108.578 c 0,-14.871 -11.9,-26.7694 -26.78,-26.7694 h -194.84 c -14.13,0 -26.03,11.8984 -26.03,26.7694 v 29.75 c 0,14.875 11.9,26.774 26.03,26.774 h 194.84 c 14.88,0 26.78,-11.899 26.78,-26.774 z m 82.55,-81.8046 V 386.719 c 0,14.133 -11.9,26.777 -26.78,26.777 h -359.95 c -14.12,0 -26.77,-12.644 -26.77,-26.777 v -29.004 c 0,-14.125 12.65,-26.774 26.77,-26.774 h 277.4 c 14.88,0 26.78,-11.898 26.78,-26.023 v -29.75 c 0,-14.875 -11.9,-26.773 -26.78,-26.773 h -277.4 c -14.12,0 -26.77,-11.899 -26.77,-26.774 V 26.7734 C 3205.29,11.8984 3217.94,0 3232.06,0 h 359.95 c 14.88,0 26.78,11.8984 26.78,26.7734" /><path
         id="path28"
         style="fill:#15366f;fill-opacity:1;fill-rule:nonzero;stroke:none"
         d="m 4070.95,0 h -29.01 c -14.87,0 -26.77,11.8984 -26.77,26.7734 V 304.172 c 0,14.129 -11.9,26.031 -26.77,26.031 h -194.85 c -14.14,0 -26.03,-11.902 -26.03,-26.031 V 26.7734 C 3767.52,11.8984 3754.88,0 3740.74,0 H 3711 c -14.14,0 -26.77,11.8984 -26.77,26.7734 V 386.719 c 0,14.133 12.63,26.777 26.77,26.777 h 359.95 c 14.87,0 26.78,-12.644 26.78,-26.777 V 26.7734 C 4097.73,11.8984 4085.82,0 4070.95,0" /><path
         id="path30"
         style="fill:#15366f;fill-opacity:1;fill-rule:nonzero;stroke:none"
         d="m 4493.36,274.426 c 0,-14.133 -11.9,-26.031 -26.02,-26.031 h -194.12 c -14.87,0 -26.76,11.898 -26.76,26.031 v 29.004 c 0,14.871 11.89,26.773 26.76,26.773 h 194.12 c 14.12,0 26.02,-11.902 26.02,-26.773 z m 83.29,-247.6526 v 29.7461 c 0,14.8789 -11.89,26.7774 -26.77,26.7774 h -276.66 c -14.87,0 -26.76,11.8945 -26.76,26.0271 v 29.004 c 0,14.875 11.89,26.774 26.76,26.774 h 276.66 c 14.88,0 26.77,11.894 26.77,26.773 v 194.844 c 0,14.133 -11.89,26.777 -26.77,26.777 h -359.95 c -14.13,0 -26.78,-12.644 -26.78,-26.777 V 26.7734 C 4163.15,11.8984 4175.8,0 4189.93,0 h 359.95 c 14.88,0 26.77,11.8984 26.77,26.7734" /><path
         id="path32"
         style="fill:#bf2033;fill-opacity:1;fill-rule:nonzero;stroke:none"
         d="m 2215.15,498.102 c -35.57,35.566 -72.56,72.554 -77.37,77.359 -4.8,-4.813 -41.8,-41.801 -77.36,-77.359 24.48,11.222 50.92,16.847 77.35,16.847 26.46,0 52.89,-5.625 77.38,-16.847" /><path
         id="path34"
         style="fill:#15366f;fill-opacity:1;fill-rule:nonzero;stroke:none"
         d="M 203.441,579.094 496.672,285.793 212.777,1.79688 H 577.145 V 579.094 H 203.441" /><path
         id="path36"
         style="fill:#15366f;fill-opacity:1;fill-rule:nonzero;stroke:none"
         d="M 140.434,579.094 H 0 V 1.79688 H 146.57 C 259.375,177.219 257.344,405.59 140.434,579.094" /><path
         id="path38"
         style="fill:#bf2033;fill-opacity:1;fill-rule:nonzero;stroke:none"
         d="m 440.348,285.793 c -6.692,6.645 -187.7,187.734 -213.184,213.215 27.367,-67.383 42.449,-140.36 42.449,-213.215 0,-72.891 -15.082,-145.867 -42.449,-213.25 l 213.184,213.25" /></g></g></svg>